<svg width="150" height="108" viewBox="0 0 150 108" fill="none" xmlns="http://www.w3.org/2000/svg">
<path d="M6.36328 96.2402H18.4922V99H2.9707V73.4062H6.36328V96.2402ZM20.9707 89.3145C20.9707 87.4512 21.334 85.7754 22.0605 84.2871C22.7988 82.7988 23.8184 81.6504 25.1191 80.8418C26.4316 80.0332 27.9258 79.6289 29.6016 79.6289C32.1914 79.6289 34.2832 80.5254 35.877 82.3184C37.4824 84.1113 38.2852 86.4961 38.2852 89.4727V89.7012C38.2852 91.5527 37.9277 93.2168 37.2129 94.6934C36.5098 96.1582 35.4961 97.3008 34.1719 98.1211C32.8594 98.9414 31.3477 99.3516 29.6367 99.3516C27.0586 99.3516 24.9668 98.4551 23.3613 96.6621C21.7676 94.8691 20.9707 92.4961 20.9707 89.543V89.3145ZM24.2402 89.7012C24.2402 91.8105 24.7266 93.5039 25.6992 94.7812C26.6836 96.0586 27.9961 96.6973 29.6367 96.6973C31.2891 96.6973 32.6016 96.0527 33.5742 94.7637C34.5469 93.4629 35.0332 91.6465 35.0332 89.3145C35.0332 87.2285 34.5352 85.541 33.5391 84.252C32.5547 82.9512 31.2422 82.3008 29.6016 82.3008C27.9961 82.3008 26.7012 82.9395 25.7168 84.2168C24.7324 85.4941 24.2402 87.3223 24.2402 89.7012ZM41.5898 89.332C41.5898 86.3672 42.2754 84.0117 43.6465 82.2656C45.0176 80.5078 46.834 79.6289 49.0957 79.6289C51.416 79.6289 53.2266 80.4492 54.5273 82.0898L54.6855 79.9805H57.6562V98.543C57.6562 101.004 56.9238 102.943 55.459 104.361C54.0059 105.779 52.0488 106.488 49.5879 106.488C48.2168 106.488 46.875 106.195 45.5625 105.609C44.25 105.023 43.248 104.221 42.5566 103.201L44.2441 101.25C45.6387 102.973 47.3438 103.834 49.3594 103.834C50.9414 103.834 52.1719 103.389 53.0508 102.498C53.9414 101.607 54.3867 100.354 54.3867 98.7363V97.1016C53.0859 98.6016 51.3105 99.3516 49.0605 99.3516C46.834 99.3516 45.0293 98.4551 43.6465 96.6621C42.2754 94.8691 41.5898 92.4258 41.5898 89.332ZM44.8594 89.7012C44.8594 91.8457 45.2988 93.5332 46.1777 94.7637C47.0566 95.9824 48.2871 96.5918 49.8691 96.5918C51.9199 96.5918 53.4258 95.6602 54.3867 93.7969V85.1133C53.3906 83.2969 51.8965 82.3887 49.9043 82.3887C48.3223 82.3887 47.0859 83.0039 46.1953 84.2344C45.3047 85.4648 44.8594 87.2871 44.8594 89.7012ZM61.7168 89.3145C61.7168 87.4512 62.0801 85.7754 62.8066 84.2871C63.5449 82.7988 64.5645 81.6504 65.8652 80.8418C67.1777 80.0332 68.6719 79.6289 70.3477 79.6289C72.9375 79.6289 75.0293 80.5254 76.623 82.3184C78.2285 84.1113 79.0312 86.4961 79.0312 89.4727V89.7012C79.0312 91.5527 78.6738 93.2168 77.959 94.6934C77.2559 96.1582 76.2422 97.3008 74.918 98.1211C73.6055 98.9414 72.0938 99.3516 70.3828 99.3516C67.8047 99.3516 65.7129 98.4551 64.1074 96.6621C62.5137 94.8691 61.7168 92.4961 61.7168 89.543V89.3145ZM64.9863 89.7012C64.9863 91.8105 65.4727 93.5039 66.4453 94.7812C67.4297 96.0586 68.7422 96.6973 70.3828 96.6973C72.0352 96.6973 73.3477 96.0527 74.3203 94.7637C75.293 93.4629 75.7793 91.6465 75.7793 89.3145C75.7793 87.2285 75.2812 85.541 74.2852 84.252C73.3008 82.9512 71.9883 82.3008 70.3477 82.3008C68.7422 82.3008 67.4473 82.9395 66.4629 84.2168C65.4785 85.4941 64.9863 87.3223 64.9863 89.7012Z" fill="black"/>
<path d="M101.303 76.1836H93.0762V99H89.7188V76.1836H81.5098V73.4062H101.303V76.1836ZM110.725 99.3516C108.146 99.3516 106.049 98.5078 104.432 96.8203C102.814 95.1211 102.006 92.8535 102.006 90.0176V89.4199C102.006 87.5332 102.363 85.8516 103.078 84.375C103.805 82.8867 104.812 81.7266 106.102 80.8945C107.402 80.0508 108.809 79.6289 110.32 79.6289C112.793 79.6289 114.715 80.4434 116.086 82.0723C117.457 83.7012 118.143 86.0332 118.143 89.0684V90.4219H105.258C105.305 92.2969 105.85 93.8145 106.893 94.9746C107.947 96.123 109.283 96.6973 110.9 96.6973C112.049 96.6973 113.021 96.4629 113.818 95.9941C114.615 95.5254 115.312 94.9043 115.91 94.1309L117.896 95.6777C116.303 98.127 113.912 99.3516 110.725 99.3516ZM110.32 82.3008C109.008 82.3008 107.906 82.7812 107.016 83.7422C106.125 84.6914 105.574 86.0273 105.363 87.75H114.891V87.5039C114.797 85.8516 114.352 84.5742 113.555 83.6719C112.758 82.7578 111.68 82.3008 110.32 82.3008ZM128.303 86.9238L132.521 79.9805H136.318L130.096 89.3848L136.512 99H132.75L128.355 91.8809L123.961 99H120.182L126.598 89.3848L120.375 79.9805H124.137L128.303 86.9238ZM144.193 75.375V79.9805H147.744V82.4941H144.193V94.2891C144.193 95.0508 144.352 95.625 144.668 96.0117C144.984 96.3867 145.523 96.5742 146.285 96.5742C146.66 96.5742 147.176 96.5039 147.832 96.3633V99C146.977 99.2344 146.145 99.3516 145.336 99.3516C143.883 99.3516 142.787 98.9121 142.049 98.0332C141.311 97.1543 140.941 95.9062 140.941 94.2891V82.4941H137.479V79.9805H140.941V75.375H144.193Z" fill="#2B77E9"/>
<g filter="url(#filter0_d)">
<rect x="50" y="7" width="51" height="51" rx="6" fill="#6AB8FF"/>
</g>
<defs>
<filter id="filter0_d" x="39" y="0" width="73" height="73" filterUnits="userSpaceOnUse" color-interpolation-filters="sRGB">
<feFlood flood-opacity="0" result="BackgroundImageFix"/>
<feColorMatrix in="SourceAlpha" type="matrix" values="0 0 0 0 0 0 0 0 0 0 0 0 0 0 0 0 0 0 127 0" result="hardAlpha"/>
<feMorphology radius="2" operator="dilate" in="SourceAlpha" result="effect1_dropShadow"/>
<feOffset dy="4"/>
<feGaussianBlur stdDeviation="4.5"/>
<feComposite in2="hardAlpha" operator="out"/>
<feColorMatrix type="matrix" values="0 0 0 0 0 0 0 0 0 0 0 0 0 0 0 0 0 0 0.15 0"/>
<feBlend mode="normal" in2="BackgroundImageFix" result="effect1_dropShadow"/>
<feBlend mode="normal" in="SourceGraphic" in2="effect1_dropShadow" result="shape"/>
</filter>
</defs>
</svg>
